<?xml version="1.0" encoding="UTF-8" standalone="no"?>
<!-- Created with Inkscape (http://www.inkscape.org/) -->
<svg
   xmlns:svg="http://www.w3.org/2000/svg"
   xmlns="http://www.w3.org/2000/svg"
   version="1.0"
   width="300"
   height="220"
   id="svg2">
  <defs
     id="defs4" />
  <g
     transform="translate(6,1)"
     id="g3959">
    <path
       d="M 39,190 C 39,191.65685 37.656854,193 36,193 C 34.343146,193 33,191.65685 33,190 C 33,188.34315 34.343146,187 36,187 C 37.656854,187 39,188.34315 39,190 z"
       id="path2843"
       style="fill:#000000;fill-opacity:1;stroke:none;stroke-width:1.5;stroke-miterlimit:4;stroke-dasharray:none;stroke-opacity:1" />
    <path
       d="M 87,190 C 87,191.65685 85.656854,193 84,193 C 82.343146,193 81,191.65685 81,190 C 81,188.34315 82.343146,187 84,187 C 85.656854,187 87,188.34315 87,190 z"
       id="path2845"
       style="fill:#000000;fill-opacity:1;stroke:none;stroke-width:1.5;stroke-miterlimit:4;stroke-dasharray:none;stroke-opacity:1" />
    <path
       d="M 15,208 C 15,209.65685 13.656854,211 12,211 C 10.343146,211 9,209.65685 9,208 C 9,206.34315 10.343146,205 12,205 C 13.656854,205 15,206.34315 15,208 z"
       id="path2857"
       style="fill:#000000;fill-opacity:1;stroke:none;stroke-width:1.5;stroke-miterlimit:4;stroke-dasharray:none;stroke-opacity:1" />
    <path
       d="M 63,208 C 63,209.65685 61.656854,211 60,211 C 58.343146,211 57,209.65685 57,208 C 57,206.34315 58.343146,205 60,205 C 61.656854,205 63,206.34315 63,208 z"
       id="path2859"
       style="fill:#000000;fill-opacity:1;stroke:none;stroke-width:1.5;stroke-miterlimit:4;stroke-dasharray:none;stroke-opacity:1" />
    <path
       d="M 135,190 C 135,191.65685 133.65685,193 132,193 C 130.34315,193 129,191.65685 129,190 C 129,188.34315 130.34315,187 132,187 C 133.65685,187 135,188.34315 135,190 z"
       id="path3821"
       style="fill:#000000;fill-opacity:1;stroke:none;stroke-width:1.5;stroke-miterlimit:4;stroke-dasharray:none;stroke-opacity:1" />
    <path
       d="M 183,190 C 183,191.65685 181.65685,193 180,193 C 178.34315,193 177,191.65685 177,190 C 177,188.34315 178.34315,187 180,187 C 181.65685,187 183,188.34315 183,190 z"
       id="path3823"
       style="fill:#000000;fill-opacity:1;stroke:none;stroke-width:1.5;stroke-miterlimit:4;stroke-dasharray:none;stroke-opacity:1" />
    <path
       d="M 111,208 C 111,209.65685 109.65685,211 108,211 C 106.34315,211 105,209.65685 105,208 C 105,206.34315 106.34315,205 108,205 C 109.65685,205 111,206.34315 111,208 z"
       id="path3825"
       style="fill:#000000;fill-opacity:1;stroke:none;stroke-width:1.5;stroke-miterlimit:4;stroke-dasharray:none;stroke-opacity:1" />
    <path
       d="M 159,208 C 159,209.65685 157.65685,211 156,211 C 154.34315,211 153,209.65685 153,208 C 153,206.34315 154.34315,205 156,205 C 157.65685,205 159,206.34315 159,208 z"
       id="path3827"
       style="fill:#000000;fill-opacity:1;stroke:none;stroke-width:1.5;stroke-miterlimit:4;stroke-dasharray:none;stroke-opacity:1" />
    <path
       d="M 231,190 C 231,191.65685 229.65685,193 228,193 C 226.34315,193 225,191.65685 225,190 C 225,188.34315 226.34315,187 228,187 C 229.65685,187 231,188.34315 231,190 z"
       id="path3829"
       style="fill:#000000;fill-opacity:1;stroke:none;stroke-width:1.5;stroke-miterlimit:4;stroke-dasharray:none;stroke-opacity:1" />
    <path
       d="M 279,190 C 279,191.65685 277.65685,193 276,193 C 274.34315,193 273,191.65685 273,190 C 273,188.34315 274.34315,187 276,187 C 277.65685,187 279,188.34315 279,190 z"
       id="path3831"
       style="fill:#000000;fill-opacity:1;stroke:none;stroke-width:1.5;stroke-miterlimit:4;stroke-dasharray:none;stroke-opacity:1" />
    <path
       d="M 207,208 C 207,209.65685 205.65685,211 204,211 C 202.34315,211 201,209.65685 201,208 C 201,206.34315 202.34315,205 204,205 C 205.65685,205 207,206.34315 207,208 z"
       id="path3833"
       style="fill:#000000;fill-opacity:1;stroke:none;stroke-width:1.5;stroke-miterlimit:4;stroke-dasharray:none;stroke-opacity:1" />
    <path
       d="M 255,208 C 255,209.65685 253.65685,211 252,211 C 250.34315,211 249,209.65685 249,208 C 249,206.34315 250.34315,205 252,205 C 253.65685,205 255,206.34315 255,208 z"
       id="path3835"
       style="fill:#000000;fill-opacity:1;stroke:none;stroke-width:1.5;stroke-miterlimit:4;stroke-dasharray:none;stroke-opacity:1" />
    <path
       d="M 39,154 C 39,155.65685 37.656854,157 36,157 C 34.343146,157 33,155.65685 33,154 C 33,152.34315 34.343146,151 36,151 C 37.656854,151 39,152.34315 39,154 z"
       id="path3839"
       style="fill:#000000;fill-opacity:1;stroke:none;stroke-width:1.5;stroke-miterlimit:4;stroke-dasharray:none;stroke-opacity:1" />
    <path
       d="M 87,154 C 87,155.65685 85.656854,157 84,157 C 82.343146,157 81,155.65685 81,154 C 81,152.34315 82.343146,151 84,151 C 85.656854,151 87,152.34315 87,154 z"
       id="path3841"
       style="fill:#000000;fill-opacity:1;stroke:none;stroke-width:1.5;stroke-miterlimit:4;stroke-dasharray:none;stroke-opacity:1" />
    <path
       d="M 15,172 C 15,173.65685 13.656854,175 12,175 C 10.343146,175 9,173.65685 9,172 C 9,170.34315 10.343146,169 12,169 C 13.656854,169 15,170.34315 15,172 z"
       id="path3843"
       style="fill:#000000;fill-opacity:1;stroke:none;stroke-width:1.5;stroke-miterlimit:4;stroke-dasharray:none;stroke-opacity:1" />
    <path
       d="M 63,172 C 63,173.65685 61.656854,175 60,175 C 58.343146,175 57,173.65685 57,172 C 57,170.34315 58.343146,169 60,169 C 61.656854,169 63,170.34315 63,172 z"
       id="path3845"
       style="fill:#000000;fill-opacity:1;stroke:none;stroke-width:1.5;stroke-miterlimit:4;stroke-dasharray:none;stroke-opacity:1" />
    <path
       d="M 135,154 C 135,155.65685 133.65685,157 132,157 C 130.34315,157 129,155.65685 129,154 C 129,152.34315 130.34315,151 132,151 C 133.65685,151 135,152.34315 135,154 z"
       id="path3847"
       style="fill:#000000;fill-opacity:1;stroke:none;stroke-width:1.5;stroke-miterlimit:4;stroke-dasharray:none;stroke-opacity:1" />
    <path
       d="M 183,154 C 183,155.65685 181.65685,157 180,157 C 178.34315,157 177,155.65685 177,154 C 177,152.34315 178.34315,151 180,151 C 181.65685,151 183,152.34315 183,154 z"
       id="path3849"
       style="fill:#000000;fill-opacity:1;stroke:none;stroke-width:1.5;stroke-miterlimit:4;stroke-dasharray:none;stroke-opacity:1" />
    <path
       d="M 111,172 C 111,173.65685 109.65685,175 108,175 C 106.34315,175 105,173.65685 105,172 C 105,170.34315 106.34315,169 108,169 C 109.65685,169 111,170.34315 111,172 z"
       id="path3851"
       style="fill:#000000;fill-opacity:1;stroke:none;stroke-width:1.5;stroke-miterlimit:4;stroke-dasharray:none;stroke-opacity:1" />
    <path
       d="M 159,172 C 159,173.65685 157.65685,175 156,175 C 154.34315,175 153,173.65685 153,172 C 153,170.34315 154.34315,169 156,169 C 157.65685,169 159,170.34315 159,172 z"
       id="path3853"
       style="fill:#000000;fill-opacity:1;stroke:none;stroke-width:1.5;stroke-miterlimit:4;stroke-dasharray:none;stroke-opacity:1" />
    <path
       d="M 231,154 C 231,155.65685 229.65685,157 228,157 C 226.34315,157 225,155.65685 225,154 C 225,152.34315 226.34315,151 228,151 C 229.65685,151 231,152.34315 231,154 z"
       id="path3855"
       style="fill:#000000;fill-opacity:1;stroke:none;stroke-width:1.5;stroke-miterlimit:4;stroke-dasharray:none;stroke-opacity:1" />
    <path
       d="M 279,154 C 279,155.65685 277.65685,157 276,157 C 274.34315,157 273,155.65685 273,154 C 273,152.34315 274.34315,151 276,151 C 277.65685,151 279,152.34315 279,154 z"
       id="path3857"
       style="fill:#000000;fill-opacity:1;stroke:none;stroke-width:1.5;stroke-miterlimit:4;stroke-dasharray:none;stroke-opacity:1" />
    <path
       d="M 207,172 C 207,173.65685 205.65685,175 204,175 C 202.34315,175 201,173.65685 201,172 C 201,170.34315 202.34315,169 204,169 C 205.65685,169 207,170.34315 207,172 z"
       id="path3859"
       style="fill:#000000;fill-opacity:1;stroke:none;stroke-width:1.5;stroke-miterlimit:4;stroke-dasharray:none;stroke-opacity:1" />
    <path
       d="M 255,172 C 255,173.65685 253.65685,175 252,175 C 250.34315,175 249,173.65685 249,172 C 249,170.34315 250.34315,169 252,169 C 253.65685,169 255,170.34315 255,172 z"
       id="path3861"
       style="fill:#000000;fill-opacity:1;stroke:none;stroke-width:1.5;stroke-miterlimit:4;stroke-dasharray:none;stroke-opacity:1" />
    <path
       d="M 39,118 C 39,119.65685 37.656854,121 36,121 C 34.343146,121 33,119.65685 33,118 C 33,116.34315 34.343146,115 36,115 C 37.656854,115 39,116.34315 39,118 z"
       id="path3863"
       style="fill:#000000;fill-opacity:1;stroke:none;stroke-width:1.5;stroke-miterlimit:4;stroke-dasharray:none;stroke-opacity:1" />
    <path
       d="M 87,118 C 87,119.65685 85.656854,121 84,121 C 82.343146,121 81,119.65685 81,118 C 81,116.34315 82.343146,115 84,115 C 85.656854,115 87,116.34315 87,118 z"
       id="path3865"
       style="fill:#000000;fill-opacity:1;stroke:none;stroke-width:1.5;stroke-miterlimit:4;stroke-dasharray:none;stroke-opacity:1" />
    <path
       d="M 15,136 C 15,137.65685 13.656854,139 12,139 C 10.343146,139 9,137.65685 9,136 C 9,134.34315 10.343146,133 12,133 C 13.656854,133 15,134.34315 15,136 z"
       id="path3867"
       style="fill:#000000;fill-opacity:1;stroke:none;stroke-width:1.5;stroke-miterlimit:4;stroke-dasharray:none;stroke-opacity:1" />
    <path
       d="M 63,136 C 63,137.65685 61.656854,139 60,139 C 58.343146,139 57,137.65685 57,136 C 57,134.34315 58.343146,133 60,133 C 61.656854,133 63,134.34315 63,136 z"
       id="path3869"
       style="fill:#000000;fill-opacity:1;stroke:none;stroke-width:1.5;stroke-miterlimit:4;stroke-dasharray:none;stroke-opacity:1" />
    <path
       d="M 135,118 C 135,119.65685 133.65685,121 132,121 C 130.34315,121 129,119.65685 129,118 C 129,116.34315 130.34315,115 132,115 C 133.65685,115 135,116.34315 135,118 z"
       id="path3871"
       style="fill:#000000;fill-opacity:1;stroke:none;stroke-width:1.5;stroke-miterlimit:4;stroke-dasharray:none;stroke-opacity:1" />
    <path
       d="M 183,118 C 183,119.65685 181.65685,121 180,121 C 178.34315,121 177,119.65685 177,118 C 177,116.34315 178.34315,115 180,115 C 181.65685,115 183,116.34315 183,118 z"
       id="path3873"
       style="fill:#000000;fill-opacity:1;stroke:none;stroke-width:1.5;stroke-miterlimit:4;stroke-dasharray:none;stroke-opacity:1" />
    <path
       d="M 111,136 C 111,137.65685 109.65685,139 108,139 C 106.34315,139 105,137.65685 105,136 C 105,134.34315 106.34315,133 108,133 C 109.65685,133 111,134.34315 111,136 z"
       id="path3875"
       style="fill:#000000;fill-opacity:1;stroke:none;stroke-width:1.5;stroke-miterlimit:4;stroke-dasharray:none;stroke-opacity:1" />
    <path
       d="M 159,136 C 159,137.65685 157.65685,139 156,139 C 154.34315,139 153,137.65685 153,136 C 153,134.34315 154.34315,133 156,133 C 157.65685,133 159,134.34315 159,136 z"
       id="path3877"
       style="fill:#000000;fill-opacity:1;stroke:none;stroke-width:1.5;stroke-miterlimit:4;stroke-dasharray:none;stroke-opacity:1" />
    <path
       d="M 231,118 C 231,119.65685 229.65685,121 228,121 C 226.34315,121 225,119.65685 225,118 C 225,116.34315 226.34315,115 228,115 C 229.65685,115 231,116.34315 231,118 z"
       id="path3879"
       style="fill:#000000;fill-opacity:1;stroke:none;stroke-width:1.5;stroke-miterlimit:4;stroke-dasharray:none;stroke-opacity:1" />
    <path
       d="M 279,118 C 279,119.65685 277.65685,121 276,121 C 274.34315,121 273,119.65685 273,118 C 273,116.34315 274.34315,115 276,115 C 277.65685,115 279,116.34315 279,118 z"
       id="path3881"
       style="fill:#000000;fill-opacity:1;stroke:none;stroke-width:1.5;stroke-miterlimit:4;stroke-dasharray:none;stroke-opacity:1" />
    <path
       d="M 207,136 C 207,137.65685 205.65685,139 204,139 C 202.34315,139 201,137.65685 201,136 C 201,134.34315 202.34315,133 204,133 C 205.65685,133 207,134.34315 207,136 z"
       id="path3883"
       style="fill:#000000;fill-opacity:1;stroke:none;stroke-width:1.5;stroke-miterlimit:4;stroke-dasharray:none;stroke-opacity:1" />
    <path
       d="M 255,136 C 255,137.65685 253.65685,139 252,139 C 250.34315,139 249,137.65685 249,136 C 249,134.34315 250.34315,133 252,133 C 253.65685,133 255,134.34315 255,136 z"
       id="path3885"
       style="fill:#000000;fill-opacity:1;stroke:none;stroke-width:1.5;stroke-miterlimit:4;stroke-dasharray:none;stroke-opacity:1" />
    <path
       d="M 39,82 C 39,83.65685 37.656854,85 36,85 C 34.343146,85 33,83.65685 33,82 C 33,80.34315 34.343146,79 36,79 C 37.656854,79 39,80.34315 39,82 z"
       id="path3887"
       style="fill:#000000;fill-opacity:1;stroke:none;stroke-width:1.5;stroke-miterlimit:4;stroke-dasharray:none;stroke-opacity:1" />
    <path
       d="M 87,82 C 87,83.65685 85.656854,85 84,85 C 82.343146,85 81,83.65685 81,82 C 81,80.34315 82.343146,79 84,79 C 85.656854,79 87,80.34315 87,82 z"
       id="path3889"
       style="fill:#000000;fill-opacity:1;stroke:none;stroke-width:1.5;stroke-miterlimit:4;stroke-dasharray:none;stroke-opacity:1" />
    <path
       d="M 15,100 C 15,101.65685 13.656854,103 12,103 C 10.343146,103 9,101.65685 9,100 C 9,98.34315 10.343146,97 12,97 C 13.656854,97 15,98.34315 15,100 z"
       id="path3891"
       style="fill:#000000;fill-opacity:1;stroke:none;stroke-width:1.5;stroke-miterlimit:4;stroke-dasharray:none;stroke-opacity:1" />
    <path
       d="M 63,100 C 63,101.65685 61.656854,103 60,103 C 58.343146,103 57,101.65685 57,100 C 57,98.34315 58.343146,97 60,97 C 61.656854,97 63,98.34315 63,100 z"
       id="path3893"
       style="fill:#000000;fill-opacity:1;stroke:none;stroke-width:1.5;stroke-miterlimit:4;stroke-dasharray:none;stroke-opacity:1" />
    <path
       d="M 135,82 C 135,83.65685 133.65685,85 132,85 C 130.34315,85 129,83.65685 129,82 C 129,80.34315 130.34315,79 132,79 C 133.65685,79 135,80.34315 135,82 z"
       id="path3895"
       style="fill:#000000;fill-opacity:1;stroke:none;stroke-width:1.5;stroke-miterlimit:4;stroke-dasharray:none;stroke-opacity:1" />
    <path
       d="M 183,82 C 183,83.65685 181.65685,85 180,85 C 178.34315,85 177,83.65685 177,82 C 177,80.34315 178.34315,79 180,79 C 181.65685,79 183,80.34315 183,82 z"
       id="path3897"
       style="fill:#000000;fill-opacity:1;stroke:none;stroke-width:1.5;stroke-miterlimit:4;stroke-dasharray:none;stroke-opacity:1" />
    <path
       d="M 111,100 C 111,101.65685 109.65685,103 108,103 C 106.34315,103 105,101.65685 105,100 C 105,98.34315 106.34315,97 108,97 C 109.65685,97 111,98.34315 111,100 z"
       id="path3899"
       style="fill:#000000;fill-opacity:1;stroke:none;stroke-width:1.5;stroke-miterlimit:4;stroke-dasharray:none;stroke-opacity:1" />
    <path
       d="M 159,100 C 159,101.65685 157.65685,103 156,103 C 154.34315,103 153,101.65685 153,100 C 153,98.34315 154.34315,97 156,97 C 157.65685,97 159,98.34315 159,100 z"
       id="path3901"
       style="fill:#000000;fill-opacity:1;stroke:none;stroke-width:1.5;stroke-miterlimit:4;stroke-dasharray:none;stroke-opacity:1" />
    <path
       d="M 231,82 C 231,83.65685 229.65685,85 228,85 C 226.34315,85 225,83.65685 225,82 C 225,80.34315 226.34315,79 228,79 C 229.65685,79 231,80.34315 231,82 z"
       id="path3903"
       style="fill:#000000;fill-opacity:1;stroke:none;stroke-width:1.5;stroke-miterlimit:4;stroke-dasharray:none;stroke-opacity:1" />
    <path
       d="M 279,82 C 279,83.65685 277.65685,85 276,85 C 274.34315,85 273,83.65685 273,82 C 273,80.34315 274.34315,79 276,79 C 277.65685,79 279,80.34315 279,82 z"
       id="path3905"
       style="fill:#000000;fill-opacity:1;stroke:none;stroke-width:1.5;stroke-miterlimit:4;stroke-dasharray:none;stroke-opacity:1" />
    <path
       d="M 207,100 C 207,101.65685 205.65685,103 204,103 C 202.34315,103 201,101.65685 201,100 C 201,98.34315 202.34315,97 204,97 C 205.65685,97 207,98.34315 207,100 z"
       id="path3907"
       style="fill:#000000;fill-opacity:1;stroke:none;stroke-width:1.5;stroke-miterlimit:4;stroke-dasharray:none;stroke-opacity:1" />
    <path
       d="M 255,100 C 255,101.65685 253.65685,103 252,103 C 250.34315,103 249,101.65685 249,100 C 249,98.34315 250.34315,97 252,97 C 253.65685,97 255,98.34315 255,100 z"
       id="path3909"
       style="fill:#000000;fill-opacity:1;stroke:none;stroke-width:1.5;stroke-miterlimit:4;stroke-dasharray:none;stroke-opacity:1" />
    <path
       d="M 39,46 C 39,47.65685 37.656854,49 36,49 C 34.343146,49 33,47.65685 33,46 C 33,44.34315 34.343146,43 36,43 C 37.656854,43 39,44.34315 39,46 z"
       id="path3911"
       style="fill:#000000;fill-opacity:1;stroke:none;stroke-width:1.5;stroke-miterlimit:4;stroke-dasharray:none;stroke-opacity:1" />
    <path
       d="M 87,46 C 87,47.65685 85.656854,49 84,49 C 82.343146,49 81,47.65685 81,46 C 81,44.34315 82.343146,43 84,43 C 85.656854,43 87,44.34315 87,46 z"
       id="path3913"
       style="fill:#000000;fill-opacity:1;stroke:none;stroke-width:1.5;stroke-miterlimit:4;stroke-dasharray:none;stroke-opacity:1" />
    <path
       d="M 15,64 C 15,65.65685 13.656854,67 12,67 C 10.343146,67 9,65.65685 9,64 C 9,62.34315 10.343146,61 12,61 C 13.656854,61 15,62.34315 15,64 z"
       id="path3915"
       style="fill:#000000;fill-opacity:1;stroke:none;stroke-width:1.5;stroke-miterlimit:4;stroke-dasharray:none;stroke-opacity:1" />
    <path
       d="M 63,64 C 63,65.65685 61.656854,67 60,67 C 58.343146,67 57,65.65685 57,64 C 57,62.34315 58.343146,61 60,61 C 61.656854,61 63,62.34315 63,64 z"
       id="path3917"
       style="fill:#000000;fill-opacity:1;stroke:none;stroke-width:1.5;stroke-miterlimit:4;stroke-dasharray:none;stroke-opacity:1" />
    <path
       d="M 135,46 C 135,47.65685 133.65685,49 132,49 C 130.34315,49 129,47.65685 129,46 C 129,44.34315 130.34315,43 132,43 C 133.65685,43 135,44.34315 135,46 z"
       id="path3919"
       style="fill:#000000;fill-opacity:1;stroke:none;stroke-width:1.5;stroke-miterlimit:4;stroke-dasharray:none;stroke-opacity:1" />
    <path
       d="M 183,46 C 183,47.65685 181.65685,49 180,49 C 178.34315,49 177,47.65685 177,46 C 177,44.34315 178.34315,43 180,43 C 181.65685,43 183,44.34315 183,46 z"
       id="path3921"
       style="fill:#000000;fill-opacity:1;stroke:none;stroke-width:1.5;stroke-miterlimit:4;stroke-dasharray:none;stroke-opacity:1" />
    <path
       d="M 111,64 C 111,65.65685 109.65685,67 108,67 C 106.34315,67 105,65.65685 105,64 C 105,62.34315 106.34315,61 108,61 C 109.65685,61 111,62.34315 111,64 z"
       id="path3923"
       style="fill:#000000;fill-opacity:1;stroke:none;stroke-width:1.5;stroke-miterlimit:4;stroke-dasharray:none;stroke-opacity:1" />
    <path
       d="M 159,64 C 159,65.65685 157.65685,67 156,67 C 154.34315,67 153,65.65685 153,64 C 153,62.34315 154.34315,61 156,61 C 157.65685,61 159,62.34315 159,64 z"
       id="path3925"
       style="fill:#000000;fill-opacity:1;stroke:none;stroke-width:1.5;stroke-miterlimit:4;stroke-dasharray:none;stroke-opacity:1" />
    <path
       d="M 231,46 C 231,47.65685 229.65685,49 228,49 C 226.34315,49 225,47.65685 225,46 C 225,44.34315 226.34315,43 228,43 C 229.65685,43 231,44.34315 231,46 z"
       id="path3927"
       style="fill:#000000;fill-opacity:1;stroke:none;stroke-width:1.5;stroke-miterlimit:4;stroke-dasharray:none;stroke-opacity:1" />
    <path
       d="M 279,46 C 279,47.65685 277.65685,49 276,49 C 274.34315,49 273,47.65685 273,46 C 273,44.34315 274.34315,43 276,43 C 277.65685,43 279,44.34315 279,46 z"
       id="path3929"
       style="fill:#000000;fill-opacity:1;stroke:none;stroke-width:1.5;stroke-miterlimit:4;stroke-dasharray:none;stroke-opacity:1" />
    <path
       d="M 207,64 C 207,65.65685 205.65685,67 204,67 C 202.34315,67 201,65.65685 201,64 C 201,62.34315 202.34315,61 204,61 C 205.65685,61 207,62.34315 207,64 z"
       id="path3931"
       style="fill:#000000;fill-opacity:1;stroke:none;stroke-width:1.5;stroke-miterlimit:4;stroke-dasharray:none;stroke-opacity:1" />
    <path
       d="M 255,64 C 255,65.65685 253.65685,67 252,67 C 250.34315,67 249,65.65685 249,64 C 249,62.34315 250.34315,61 252,61 C 253.65685,61 255,62.34315 255,64 z"
       id="path3933"
       style="fill:#000000;fill-opacity:1;stroke:none;stroke-width:1.5;stroke-miterlimit:4;stroke-dasharray:none;stroke-opacity:1" />
    <path
       d="M 39,10 C 39,11.65685 37.656854,13 36,13 C 34.343146,13 33,11.65685 33,10 C 33,8.34315 34.343146,7 36,7 C 37.656854,7 39,8.34315 39,10 z"
       id="path3935"
       style="fill:#000000;fill-opacity:1;stroke:none;stroke-width:1.5;stroke-miterlimit:4;stroke-dasharray:none;stroke-opacity:1" />
    <path
       d="M 87,10 C 87,11.65685 85.656854,13 84,13 C 82.343146,13 81,11.65685 81,10 C 81,8.34315 82.343146,7 84,7 C 85.656854,7 87,8.34315 87,10 z"
       id="path3937"
       style="fill:#000000;fill-opacity:1;stroke:none;stroke-width:1.5;stroke-miterlimit:4;stroke-dasharray:none;stroke-opacity:1" />
    <path
       d="M 15,28 C 15,29.65685 13.656854,31 12,31 C 10.343146,31 9,29.65685 9,28 C 9,26.34315 10.343146,25 12,25 C 13.656854,25 15,26.34315 15,28 z"
       id="path3939"
       style="fill:#000000;fill-opacity:1;stroke:none;stroke-width:1.5;stroke-miterlimit:4;stroke-dasharray:none;stroke-opacity:1" />
    <path
       d="M 63,28 C 63,29.65685 61.656854,31 60,31 C 58.343146,31 57,29.65685 57,28 C 57,26.34315 58.343146,25 60,25 C 61.656854,25 63,26.34315 63,28 z"
       id="path3941"
       style="fill:#000000;fill-opacity:1;stroke:none;stroke-width:1.5;stroke-miterlimit:4;stroke-dasharray:none;stroke-opacity:1" />
    <path
       d="M 135,10 C 135,11.65685 133.65685,13 132,13 C 130.34315,13 129,11.65685 129,10 C 129,8.34315 130.34315,7 132,7 C 133.65685,7 135,8.34315 135,10 z"
       id="path3943"
       style="fill:#000000;fill-opacity:1;stroke:none;stroke-width:1.5;stroke-miterlimit:4;stroke-dasharray:none;stroke-opacity:1" />
    <path
       d="M 183,10 C 183,11.65685 181.65685,13 180,13 C 178.34315,13 177,11.65685 177,10 C 177,8.34315 178.34315,7 180,7 C 181.65685,7 183,8.34315 183,10 z"
       id="path3945"
       style="fill:#000000;fill-opacity:1;stroke:none;stroke-width:1.5;stroke-miterlimit:4;stroke-dasharray:none;stroke-opacity:1" />
    <path
       d="M 111,28 C 111,29.65685 109.65685,31 108,31 C 106.34315,31 105,29.65685 105,28 C 105,26.34315 106.34315,25 108,25 C 109.65685,25 111,26.34315 111,28 z"
       id="path3947"
       style="fill:#000000;fill-opacity:1;stroke:none;stroke-width:1.5;stroke-miterlimit:4;stroke-dasharray:none;stroke-opacity:1" />
    <path
       d="M 159,28 C 159,29.65685 157.65685,31 156,31 C 154.34315,31 153,29.65685 153,28 C 153,26.34315 154.34315,25 156,25 C 157.65685,25 159,26.34315 159,28 z"
       id="path3949"
       style="fill:#000000;fill-opacity:1;stroke:none;stroke-width:1.5;stroke-miterlimit:4;stroke-dasharray:none;stroke-opacity:1" />
    <path
       d="M 231,10 C 231,11.65685 229.65685,13 228,13 C 226.34315,13 225,11.65685 225,10 C 225,8.34315 226.34315,7 228,7 C 229.65685,7 231,8.34315 231,10 z"
       id="path3951"
       style="fill:#000000;fill-opacity:1;stroke:none;stroke-width:1.5;stroke-miterlimit:4;stroke-dasharray:none;stroke-opacity:1" />
    <path
       d="M 279,10 C 279,11.65685 277.65685,13 276,13 C 274.34315,13 273,11.65685 273,10 C 273,8.34315 274.34315,7 276,7 C 277.65685,7 279,8.34315 279,10 z"
       id="path3953"
       style="fill:#000000;fill-opacity:1;stroke:none;stroke-width:1.5;stroke-miterlimit:4;stroke-dasharray:none;stroke-opacity:1" />
    <path
       d="M 207,28 C 207,29.65685 205.65685,31 204,31 C 202.34315,31 201,29.65685 201,28 C 201,26.34315 202.34315,25 204,25 C 205.65685,25 207,26.34315 207,28 z"
       id="path3955"
       style="fill:#000000;fill-opacity:1;stroke:none;stroke-width:1.5;stroke-miterlimit:4;stroke-dasharray:none;stroke-opacity:1" />
    <path
       d="M 255,28 C 255,29.65685 253.65685,31 252,31 C 250.34315,31 249,29.65685 249,28 C 249,26.34315 250.34315,25 252,25 C 253.65685,25 255,26.34315 255,28 z"
       id="path3957"
       style="fill:#000000;fill-opacity:1;stroke:none;stroke-width:1.5;stroke-miterlimit:4;stroke-dasharray:none;stroke-opacity:1" />
  </g>
</svg>
