<?xml version="1.0" encoding="UTF-8" standalone="no"?>
<!-- Created with Inkscape (http://www.inkscape.org/) -->
<svg
   xmlns:svg="http://www.w3.org/2000/svg"
   xmlns="http://www.w3.org/2000/svg"
   version="1.0"
   width="300"
   height="220"
   id="svg2">
  <defs
     id="defs4" />
  <g
     id="layer1">
    <g
       transform="translate(0,5)"
       id="g2781">
      <path
         d="M 60,45 A 5,5 0 1 1 50,45 A 5,5 0 1 1 60,45 z"
         transform="matrix(0.6,0,0,0.6,-18,-12)"
         id="path2385"
         style="opacity:1;fill:#000000;fill-opacity:1;stroke:none;stroke-width:1.5;stroke-miterlimit:4;stroke-dasharray:none;stroke-opacity:1" />
      <path
         d="M 60,45 A 5,5 0 1 1 50,45 A 5,5 0 1 1 60,45 z"
         transform="matrix(0.6,0,0,0.6,12,-12)"
         id="path3225"
         style="opacity:1;fill:#000000;fill-opacity:1;stroke:none;stroke-width:1.5;stroke-miterlimit:4;stroke-dasharray:none;stroke-opacity:1" />
      <path
         d="M 60,45 A 5,5 0 1 1 50,45 A 5,5 0 1 1 60,45 z"
         transform="matrix(0.6,0,0,0.6,-18,18)"
         id="path3235"
         style="opacity:1;fill:#000000;fill-opacity:1;stroke:none;stroke-width:1.5;stroke-miterlimit:4;stroke-dasharray:none;stroke-opacity:1" />
      <path
         d="M 60,45 A 5,5 0 1 1 50,45 A 5,5 0 1 1 60,45 z"
         transform="matrix(0.6,0,0,0.6,12,18)"
         id="path3397"
         style="opacity:1;fill:#000000;fill-opacity:1;stroke:none;stroke-width:1.5;stroke-miterlimit:4;stroke-dasharray:none;stroke-opacity:1" />
      <path
         d="M 60,45 A 5,5 0 1 1 50,45 A 5,5 0 1 1 60,45 z"
         transform="matrix(0.6,0,0,0.6,42,-12)"
         id="path3399"
         style="opacity:1;fill:#000000;fill-opacity:1;stroke:none;stroke-width:1.5;stroke-miterlimit:4;stroke-dasharray:none;stroke-opacity:1" />
      <path
         d="M 60,45 A 5,5 0 1 1 50,45 A 5,5 0 1 1 60,45 z"
         transform="matrix(0.6,0,0,0.6,72,-12)"
         id="path3401"
         style="opacity:1;fill:#000000;fill-opacity:1;stroke:none;stroke-width:1.5;stroke-miterlimit:4;stroke-dasharray:none;stroke-opacity:1" />
      <path
         d="M 60,45 A 5,5 0 1 1 50,45 A 5,5 0 1 1 60,45 z"
         transform="matrix(0.6,0,0,0.6,42,18)"
         id="path3403"
         style="opacity:1;fill:#000000;fill-opacity:1;stroke:none;stroke-width:1.5;stroke-miterlimit:4;stroke-dasharray:none;stroke-opacity:1" />
      <path
         d="M 60,45 A 5,5 0 1 1 50,45 A 5,5 0 1 1 60,45 z"
         transform="matrix(0.6,0,0,0.6,72,18)"
         id="path3405"
         style="opacity:1;fill:#000000;fill-opacity:1;stroke:none;stroke-width:1.5;stroke-miterlimit:4;stroke-dasharray:none;stroke-opacity:1" />
      <path
         d="M 60,45 A 5,5 0 1 1 50,45 A 5,5 0 1 1 60,45 z"
         transform="matrix(0.6,0,0,0.6,102,-12)"
         id="path3407"
         style="opacity:1;fill:#000000;fill-opacity:1;stroke:none;stroke-width:1.5;stroke-miterlimit:4;stroke-dasharray:none;stroke-opacity:1" />
      <path
         d="M 60,45 A 5,5 0 1 1 50,45 A 5,5 0 1 1 60,45 z"
         transform="matrix(0.6,0,0,0.6,132,-12)"
         id="path3409"
         style="opacity:1;fill:#000000;fill-opacity:1;stroke:none;stroke-width:1.5;stroke-miterlimit:4;stroke-dasharray:none;stroke-opacity:1" />
      <path
         d="M 60,45 A 5,5 0 1 1 50,45 A 5,5 0 1 1 60,45 z"
         transform="matrix(0.6,0,0,0.6,102,18)"
         id="path3411"
         style="opacity:1;fill:#000000;fill-opacity:1;stroke:none;stroke-width:1.5;stroke-miterlimit:4;stroke-dasharray:none;stroke-opacity:1" />
      <path
         d="M 60,45 A 5,5 0 1 1 50,45 A 5,5 0 1 1 60,45 z"
         transform="matrix(0.6,0,0,0.6,132,18)"
         id="path3413"
         style="opacity:1;fill:#000000;fill-opacity:1;stroke:none;stroke-width:1.5;stroke-miterlimit:4;stroke-dasharray:none;stroke-opacity:1" />
      <path
         d="M 60,45 A 5,5 0 1 1 50,45 A 5,5 0 1 1 60,45 z"
         transform="matrix(0.6,0,0,0.6,162,-12)"
         id="path3415"
         style="opacity:1;fill:#000000;fill-opacity:1;stroke:none;stroke-width:1.5;stroke-miterlimit:4;stroke-dasharray:none;stroke-opacity:1" />
      <path
         d="M 60,45 A 5,5 0 1 1 50,45 A 5,5 0 1 1 60,45 z"
         transform="matrix(0.6,0,0,0.6,192,-12)"
         id="path3417"
         style="opacity:1;fill:#000000;fill-opacity:1;stroke:none;stroke-width:1.5;stroke-miterlimit:4;stroke-dasharray:none;stroke-opacity:1" />
      <path
         d="M 60,45 A 5,5 0 1 1 50,45 A 5,5 0 1 1 60,45 z"
         transform="matrix(0.6,0,0,0.6,162,18)"
         id="path3419"
         style="opacity:1;fill:#000000;fill-opacity:1;stroke:none;stroke-width:1.5;stroke-miterlimit:4;stroke-dasharray:none;stroke-opacity:1" />
      <path
         d="M 60,45 A 5,5 0 1 1 50,45 A 5,5 0 1 1 60,45 z"
         transform="matrix(0.6,0,0,0.6,192,18)"
         id="path3421"
         style="opacity:1;fill:#000000;fill-opacity:1;stroke:none;stroke-width:1.5;stroke-miterlimit:4;stroke-dasharray:none;stroke-opacity:1" />
      <path
         d="M 60,45 A 5,5 0 1 1 50,45 A 5,5 0 1 1 60,45 z"
         transform="matrix(0.6,0,0,0.6,222,-12)"
         id="path3423"
         style="opacity:1;fill:#000000;fill-opacity:1;stroke:none;stroke-width:1.5;stroke-miterlimit:4;stroke-dasharray:none;stroke-opacity:1" />
      <path
         d="M 60,45 A 5,5 0 1 1 50,45 A 5,5 0 1 1 60,45 z"
         transform="matrix(0.6,0,0,0.6,252,-12)"
         id="path3425"
         style="opacity:1;fill:#000000;fill-opacity:1;stroke:none;stroke-width:1.5;stroke-miterlimit:4;stroke-dasharray:none;stroke-opacity:1" />
      <path
         d="M 60,45 A 5,5 0 1 1 50,45 A 5,5 0 1 1 60,45 z"
         transform="matrix(0.6,0,0,0.6,222,18)"
         id="path3427"
         style="opacity:1;fill:#000000;fill-opacity:1;stroke:none;stroke-width:1.5;stroke-miterlimit:4;stroke-dasharray:none;stroke-opacity:1" />
      <path
         d="M 60,45 A 5,5 0 1 1 50,45 A 5,5 0 1 1 60,45 z"
         transform="matrix(0.6,0,0,0.6,252,18)"
         id="path3429"
         style="opacity:1;fill:#000000;fill-opacity:1;stroke:none;stroke-width:1.5;stroke-miterlimit:4;stroke-dasharray:none;stroke-opacity:1" />
      <path
         d="M 60,45 A 5,5 0 1 1 50,45 A 5,5 0 1 1 60,45 z"
         transform="matrix(0.6,0,0,0.6,-18,48)"
         id="path3431"
         style="opacity:1;fill:#000000;fill-opacity:1;stroke:none;stroke-width:1.5;stroke-miterlimit:4;stroke-dasharray:none;stroke-opacity:1" />
      <path
         d="M 60,45 A 5,5 0 1 1 50,45 A 5,5 0 1 1 60,45 z"
         transform="matrix(0.6,0,0,0.6,12,48)"
         id="path3433"
         style="opacity:1;fill:#000000;fill-opacity:1;stroke:none;stroke-width:1.5;stroke-miterlimit:4;stroke-dasharray:none;stroke-opacity:1" />
      <path
         d="M 60,45 A 5,5 0 1 1 50,45 A 5,5 0 1 1 60,45 z"
         transform="matrix(0.6,0,0,0.6,-18,78)"
         id="path3435"
         style="opacity:1;fill:#000000;fill-opacity:1;stroke:none;stroke-width:1.5;stroke-miterlimit:4;stroke-dasharray:none;stroke-opacity:1" />
      <path
         d="M 60,45 A 5,5 0 1 1 50,45 A 5,5 0 1 1 60,45 z"
         transform="matrix(0.6,0,0,0.6,12,78)"
         id="path3437"
         style="opacity:1;fill:#000000;fill-opacity:1;stroke:none;stroke-width:1.5;stroke-miterlimit:4;stroke-dasharray:none;stroke-opacity:1" />
      <path
         d="M 60,45 A 5,5 0 1 1 50,45 A 5,5 0 1 1 60,45 z"
         transform="matrix(0.6,0,0,0.6,42,48)"
         id="path3439"
         style="opacity:1;fill:#000000;fill-opacity:1;stroke:none;stroke-width:1.5;stroke-miterlimit:4;stroke-dasharray:none;stroke-opacity:1" />
      <path
         d="M 60,45 A 5,5 0 1 1 50,45 A 5,5 0 1 1 60,45 z"
         transform="matrix(0.6,0,0,0.6,72,48)"
         id="path3441"
         style="opacity:1;fill:#000000;fill-opacity:1;stroke:none;stroke-width:1.5;stroke-miterlimit:4;stroke-dasharray:none;stroke-opacity:1" />
      <path
         d="M 60,45 A 5,5 0 1 1 50,45 A 5,5 0 1 1 60,45 z"
         transform="matrix(0.6,0,0,0.6,42,78)"
         id="path3443"
         style="opacity:1;fill:#000000;fill-opacity:1;stroke:none;stroke-width:1.5;stroke-miterlimit:4;stroke-dasharray:none;stroke-opacity:1" />
      <path
         d="M 60,45 A 5,5 0 1 1 50,45 A 5,5 0 1 1 60,45 z"
         transform="matrix(0.6,0,0,0.6,72,78)"
         id="path3445"
         style="opacity:1;fill:#000000;fill-opacity:1;stroke:none;stroke-width:1.5;stroke-miterlimit:4;stroke-dasharray:none;stroke-opacity:1" />
      <path
         d="M 60,45 A 5,5 0 1 1 50,45 A 5,5 0 1 1 60,45 z"
         transform="matrix(0.6,0,0,0.6,102,48)"
         id="path3447"
         style="opacity:1;fill:#000000;fill-opacity:1;stroke:none;stroke-width:1.5;stroke-miterlimit:4;stroke-dasharray:none;stroke-opacity:1" />
      <path
         d="M 60,45 A 5,5 0 1 1 50,45 A 5,5 0 1 1 60,45 z"
         transform="matrix(0.6,0,0,0.6,132,48)"
         id="path3449"
         style="opacity:1;fill:#000000;fill-opacity:1;stroke:none;stroke-width:1.5;stroke-miterlimit:4;stroke-dasharray:none;stroke-opacity:1" />
      <path
         d="M 60,45 A 5,5 0 1 1 50,45 A 5,5 0 1 1 60,45 z"
         transform="matrix(0.6,0,0,0.6,102,78)"
         id="path3451"
         style="opacity:1;fill:#000000;fill-opacity:1;stroke:none;stroke-width:1.5;stroke-miterlimit:4;stroke-dasharray:none;stroke-opacity:1" />
      <path
         d="M 60,45 A 5,5 0 1 1 50,45 A 5,5 0 1 1 60,45 z"
         transform="matrix(0.6,0,0,0.6,132,78)"
         id="path3453"
         style="opacity:1;fill:#000000;fill-opacity:1;stroke:none;stroke-width:1.5;stroke-miterlimit:4;stroke-dasharray:none;stroke-opacity:1" />
      <path
         d="M 60,45 A 5,5 0 1 1 50,45 A 5,5 0 1 1 60,45 z"
         transform="matrix(0.6,0,0,0.6,162,48)"
         id="path3455"
         style="opacity:1;fill:#000000;fill-opacity:1;stroke:none;stroke-width:1.5;stroke-miterlimit:4;stroke-dasharray:none;stroke-opacity:1" />
      <path
         d="M 60,45 A 5,5 0 1 1 50,45 A 5,5 0 1 1 60,45 z"
         transform="matrix(0.6,0,0,0.6,192,48)"
         id="path3457"
         style="opacity:1;fill:#000000;fill-opacity:1;stroke:none;stroke-width:1.5;stroke-miterlimit:4;stroke-dasharray:none;stroke-opacity:1" />
      <path
         d="M 60,45 A 5,5 0 1 1 50,45 A 5,5 0 1 1 60,45 z"
         transform="matrix(0.6,0,0,0.6,162,78)"
         id="path3459"
         style="opacity:1;fill:#000000;fill-opacity:1;stroke:none;stroke-width:1.5;stroke-miterlimit:4;stroke-dasharray:none;stroke-opacity:1" />
      <path
         d="M 60,45 A 5,5 0 1 1 50,45 A 5,5 0 1 1 60,45 z"
         transform="matrix(0.6,0,0,0.6,192,78)"
         id="path3461"
         style="opacity:1;fill:#000000;fill-opacity:1;stroke:none;stroke-width:1.5;stroke-miterlimit:4;stroke-dasharray:none;stroke-opacity:1" />
      <path
         d="M 60,45 A 5,5 0 1 1 50,45 A 5,5 0 1 1 60,45 z"
         transform="matrix(0.6,0,0,0.6,222,48)"
         id="path3463"
         style="opacity:1;fill:#000000;fill-opacity:1;stroke:none;stroke-width:1.5;stroke-miterlimit:4;stroke-dasharray:none;stroke-opacity:1" />
      <path
         d="M 60,45 A 5,5 0 1 1 50,45 A 5,5 0 1 1 60,45 z"
         transform="matrix(0.6,0,0,0.6,252,48)"
         id="path3465"
         style="opacity:1;fill:#000000;fill-opacity:1;stroke:none;stroke-width:1.5;stroke-miterlimit:4;stroke-dasharray:none;stroke-opacity:1" />
      <path
         d="M 60,45 A 5,5 0 1 1 50,45 A 5,5 0 1 1 60,45 z"
         transform="matrix(0.6,0,0,0.6,222,78)"
         id="path3467"
         style="opacity:1;fill:#000000;fill-opacity:1;stroke:none;stroke-width:1.5;stroke-miterlimit:4;stroke-dasharray:none;stroke-opacity:1" />
      <path
         d="M 60,45 A 5,5 0 1 1 50,45 A 5,5 0 1 1 60,45 z"
         transform="matrix(0.6,0,0,0.6,252,78)"
         id="path3469"
         style="opacity:1;fill:#000000;fill-opacity:1;stroke:none;stroke-width:1.5;stroke-miterlimit:4;stroke-dasharray:none;stroke-opacity:1" />
      <path
         d="M 60,45 A 5,5 0 1 1 50,45 A 5,5 0 1 1 60,45 z"
         transform="matrix(0.6,0,0,0.6,-18,108)"
         id="path3471"
         style="opacity:1;fill:#000000;fill-opacity:1;stroke:none;stroke-width:1.5;stroke-miterlimit:4;stroke-dasharray:none;stroke-opacity:1" />
      <path
         d="M 60,45 A 5,5 0 1 1 50,45 A 5,5 0 1 1 60,45 z"
         transform="matrix(0.6,0,0,0.6,12,108)"
         id="path3473"
         style="opacity:1;fill:#000000;fill-opacity:1;stroke:none;stroke-width:1.5;stroke-miterlimit:4;stroke-dasharray:none;stroke-opacity:1" />
      <path
         d="M 60,45 A 5,5 0 1 1 50,45 A 5,5 0 1 1 60,45 z"
         transform="matrix(0.6,0,0,0.6,-18,138)"
         id="path3475"
         style="opacity:1;fill:#000000;fill-opacity:1;stroke:none;stroke-width:1.5;stroke-miterlimit:4;stroke-dasharray:none;stroke-opacity:1" />
      <path
         d="M 60,45 A 5,5 0 1 1 50,45 A 5,5 0 1 1 60,45 z"
         transform="matrix(0.6,0,0,0.6,12,138)"
         id="path3477"
         style="opacity:1;fill:#000000;fill-opacity:1;stroke:none;stroke-width:1.5;stroke-miterlimit:4;stroke-dasharray:none;stroke-opacity:1" />
      <path
         d="M 60,45 A 5,5 0 1 1 50,45 A 5,5 0 1 1 60,45 z"
         transform="matrix(0.6,0,0,0.6,42,108)"
         id="path3479"
         style="opacity:1;fill:#000000;fill-opacity:1;stroke:none;stroke-width:1.5;stroke-miterlimit:4;stroke-dasharray:none;stroke-opacity:1" />
      <path
         d="M 60,45 A 5,5 0 1 1 50,45 A 5,5 0 1 1 60,45 z"
         transform="matrix(0.6,0,0,0.6,72,108)"
         id="path3481"
         style="opacity:1;fill:#000000;fill-opacity:1;stroke:none;stroke-width:1.5;stroke-miterlimit:4;stroke-dasharray:none;stroke-opacity:1" />
      <path
         d="M 60,45 A 5,5 0 1 1 50,45 A 5,5 0 1 1 60,45 z"
         transform="matrix(0.6,0,0,0.6,42,138)"
         id="path3483"
         style="opacity:1;fill:#000000;fill-opacity:1;stroke:none;stroke-width:1.5;stroke-miterlimit:4;stroke-dasharray:none;stroke-opacity:1" />
      <path
         d="M 60,45 A 5,5 0 1 1 50,45 A 5,5 0 1 1 60,45 z"
         transform="matrix(0.6,0,0,0.6,72,138)"
         id="path3485"
         style="opacity:1;fill:#000000;fill-opacity:1;stroke:none;stroke-width:1.5;stroke-miterlimit:4;stroke-dasharray:none;stroke-opacity:1" />
      <path
         d="M 60,45 A 5,5 0 1 1 50,45 A 5,5 0 1 1 60,45 z"
         transform="matrix(0.6,0,0,0.6,102,108)"
         id="path3487"
         style="opacity:1;fill:#000000;fill-opacity:1;stroke:none;stroke-width:1.5;stroke-miterlimit:4;stroke-dasharray:none;stroke-opacity:1" />
      <path
         d="M 60,45 A 5,5 0 1 1 50,45 A 5,5 0 1 1 60,45 z"
         transform="matrix(0.6,0,0,0.6,132,108)"
         id="path3489"
         style="opacity:1;fill:#000000;fill-opacity:1;stroke:none;stroke-width:1.5;stroke-miterlimit:4;stroke-dasharray:none;stroke-opacity:1" />
      <path
         d="M 60,45 A 5,5 0 1 1 50,45 A 5,5 0 1 1 60,45 z"
         transform="matrix(0.6,0,0,0.6,102,138)"
         id="path3491"
         style="opacity:1;fill:#000000;fill-opacity:1;stroke:none;stroke-width:1.5;stroke-miterlimit:4;stroke-dasharray:none;stroke-opacity:1" />
      <path
         d="M 60,45 A 5,5 0 1 1 50,45 A 5,5 0 1 1 60,45 z"
         transform="matrix(0.6,0,0,0.6,132,138)"
         id="path3493"
         style="opacity:1;fill:#000000;fill-opacity:1;stroke:none;stroke-width:1.5;stroke-miterlimit:4;stroke-dasharray:none;stroke-opacity:1" />
      <path
         d="M 60,45 A 5,5 0 1 1 50,45 A 5,5 0 1 1 60,45 z"
         transform="matrix(0.6,0,0,0.6,162,108)"
         id="path3495"
         style="opacity:1;fill:#000000;fill-opacity:1;stroke:none;stroke-width:1.5;stroke-miterlimit:4;stroke-dasharray:none;stroke-opacity:1" />
      <path
         d="M 60,45 A 5,5 0 1 1 50,45 A 5,5 0 1 1 60,45 z"
         transform="matrix(0.6,0,0,0.6,192,108)"
         id="path3497"
         style="opacity:1;fill:#000000;fill-opacity:1;stroke:none;stroke-width:1.5;stroke-miterlimit:4;stroke-dasharray:none;stroke-opacity:1" />
      <path
         d="M 60,45 A 5,5 0 1 1 50,45 A 5,5 0 1 1 60,45 z"
         transform="matrix(0.6,0,0,0.6,162,138)"
         id="path3499"
         style="opacity:1;fill:#000000;fill-opacity:1;stroke:none;stroke-width:1.5;stroke-miterlimit:4;stroke-dasharray:none;stroke-opacity:1" />
      <path
         d="M 60,45 A 5,5 0 1 1 50,45 A 5,5 0 1 1 60,45 z"
         transform="matrix(0.6,0,0,0.6,192,138)"
         id="path3501"
         style="opacity:1;fill:#000000;fill-opacity:1;stroke:none;stroke-width:1.5;stroke-miterlimit:4;stroke-dasharray:none;stroke-opacity:1" />
      <path
         d="M 60,45 A 5,5 0 1 1 50,45 A 5,5 0 1 1 60,45 z"
         transform="matrix(0.6,0,0,0.6,222,108)"
         id="path3503"
         style="opacity:1;fill:#000000;fill-opacity:1;stroke:none;stroke-width:1.5;stroke-miterlimit:4;stroke-dasharray:none;stroke-opacity:1" />
      <path
         d="M 60,45 A 5,5 0 1 1 50,45 A 5,5 0 1 1 60,45 z"
         transform="matrix(0.6,0,0,0.6,252,108)"
         id="path3505"
         style="opacity:1;fill:#000000;fill-opacity:1;stroke:none;stroke-width:1.5;stroke-miterlimit:4;stroke-dasharray:none;stroke-opacity:1" />
      <path
         d="M 60,45 A 5,5 0 1 1 50,45 A 5,5 0 1 1 60,45 z"
         transform="matrix(0.6,0,0,0.6,222,138)"
         id="path3507"
         style="opacity:1;fill:#000000;fill-opacity:1;stroke:none;stroke-width:1.5;stroke-miterlimit:4;stroke-dasharray:none;stroke-opacity:1" />
      <path
         d="M 60,45 A 5,5 0 1 1 50,45 A 5,5 0 1 1 60,45 z"
         transform="matrix(0.6,0,0,0.6,252,138)"
         id="path3509"
         style="opacity:1;fill:#000000;fill-opacity:1;stroke:none;stroke-width:1.5;stroke-miterlimit:4;stroke-dasharray:none;stroke-opacity:1" />
      <path
         d="M 60,45 A 5,5 0 1 1 50,45 A 5,5 0 1 1 60,45 z"
         transform="matrix(0.6,0,0,0.6,-18,168)"
         id="path3511"
         style="opacity:1;fill:#000000;fill-opacity:1;stroke:none;stroke-width:1.5;stroke-miterlimit:4;stroke-dasharray:none;stroke-opacity:1" />
      <path
         d="M 60,45 A 5,5 0 1 1 50,45 A 5,5 0 1 1 60,45 z"
         transform="matrix(0.6,0,0,0.6,12,168)"
         id="path3513"
         style="opacity:1;fill:#000000;fill-opacity:1;stroke:none;stroke-width:1.5;stroke-miterlimit:4;stroke-dasharray:none;stroke-opacity:1" />
      <path
         d="M 60,45 A 5,5 0 1 1 50,45 A 5,5 0 1 1 60,45 z"
         transform="matrix(0.6,0,0,0.6,42,168)"
         id="path3519"
         style="opacity:1;fill:#000000;fill-opacity:1;stroke:none;stroke-width:1.5;stroke-miterlimit:4;stroke-dasharray:none;stroke-opacity:1" />
      <path
         d="M 60,45 A 5,5 0 1 1 50,45 A 5,5 0 1 1 60,45 z"
         transform="matrix(0.6,0,0,0.6,72,168)"
         id="path3521"
         style="opacity:1;fill:#000000;fill-opacity:1;stroke:none;stroke-width:1.5;stroke-miterlimit:4;stroke-dasharray:none;stroke-opacity:1" />
      <path
         d="M 60,45 A 5,5 0 1 1 50,45 A 5,5 0 1 1 60,45 z"
         transform="matrix(0.6,0,0,0.6,102,168)"
         id="path3527"
         style="opacity:1;fill:#000000;fill-opacity:1;stroke:none;stroke-width:1.5;stroke-miterlimit:4;stroke-dasharray:none;stroke-opacity:1" />
      <path
         d="M 60,45 A 5,5 0 1 1 50,45 A 5,5 0 1 1 60,45 z"
         transform="matrix(0.6,0,0,0.6,132,168)"
         id="path3529"
         style="opacity:1;fill:#000000;fill-opacity:1;stroke:none;stroke-width:1.5;stroke-miterlimit:4;stroke-dasharray:none;stroke-opacity:1" />
      <path
         d="M 60,45 A 5,5 0 1 1 50,45 A 5,5 0 1 1 60,45 z"
         transform="matrix(0.6,0,0,0.6,162,168)"
         id="path3535"
         style="opacity:1;fill:#000000;fill-opacity:1;stroke:none;stroke-width:1.5;stroke-miterlimit:4;stroke-dasharray:none;stroke-opacity:1" />
      <path
         d="M 60,45 A 5,5 0 1 1 50,45 A 5,5 0 1 1 60,45 z"
         transform="matrix(0.6,0,0,0.6,192,168)"
         id="path3537"
         style="opacity:1;fill:#000000;fill-opacity:1;stroke:none;stroke-width:1.5;stroke-miterlimit:4;stroke-dasharray:none;stroke-opacity:1" />
      <path
         d="M 60,45 A 5,5 0 1 1 50,45 A 5,5 0 1 1 60,45 z"
         transform="matrix(0.6,0,0,0.6,222,168)"
         id="path3543"
         style="opacity:1;fill:#000000;fill-opacity:1;stroke:none;stroke-width:1.5;stroke-miterlimit:4;stroke-dasharray:none;stroke-opacity:1" />
      <path
         d="M 60,45 A 5,5 0 1 1 50,45 A 5,5 0 1 1 60,45 z"
         transform="matrix(0.6,0,0,0.6,252,168)"
         id="path3545"
         style="opacity:1;fill:#000000;fill-opacity:1;stroke:none;stroke-width:1.5;stroke-miterlimit:4;stroke-dasharray:none;stroke-opacity:1" />
    </g>
  </g>
</svg>
